<svg xmlns="http://www.w3.org/2000/svg" viewBox="0 0 200 320" fill="none">
  <path d="M100 310 V120" stroke="#2f5c34" stroke-width="8" stroke-linecap="round"/>
  <path d="M100 140 C40 120 20 60 55 20 C70 70 85 100 100 120" fill="#3f8f46"/>
  <path d="M100 140 C160 120 180 60 145 20 C130 70 115 100 100 120" fill="#4aa852"/>
  <path d="M100 160 C30 155 15 100 40 55 C60 100 80 130 100 145" fill="#2f7a38"/>
  <path d="M100 160 C170 155 185 100 160 55 C140 100 120 130 100 145" fill="#57b65f"/>
  <path d="M100 185 C25 195 10 145 35 105 C55 145 80 165 100 175" fill="#3f8f46"/>
  <path d="M100 185 C175 195 190 145 165 105 C145 145 120 165 100 175" fill="#4aa852"/>
</svg>
